<svg width="139" height="37" viewBox="0 0 139 37" fill="none" xmlns="http://www.w3.org/2000/svg">
<path d="M8.74365 21.0579C7.01068 21.0579 5.52714 20.7671 4.29305 20.1854V21.6131C4.29305 22.4062 4.68691 22.8821 5.47463 23.0407L12.4853 24.3494C13.8244 24.6138 15.006 24.9443 16.03 25.3408C17.0541 25.711 17.8549 26.2529 18.4326 26.9668C19.0102 27.6542 19.299 28.5927 19.299 29.7824C19.299 31.0514 18.8789 32.2279 18.0387 33.3119C17.2247 34.4223 16.0038 35.308 14.3758 35.9689C12.7741 36.6563 10.7655 37 8.34979 37C6.27547 37 4.62127 36.7753 3.38718 36.3258C2.17935 35.9028 1.31286 35.3476 0.787716 34.6602C0.262572 33.9728 0 33.2326 0 32.4394C0 31.4877 0.315086 30.5359 0.94526 29.5841C1.60169 28.6324 2.44192 27.8392 3.46595 27.2047C1.86426 26.5966 1.06342 25.6317 1.06342 24.3098C1.06342 23.8074 1.18157 23.3448 1.41789 22.9218C1.6542 22.4987 1.94303 22.0757 2.28438 21.6527L3.70227 19.8682C1.81175 18.7578 0.866488 17.0261 0.866488 14.6731C0.866488 12.7431 1.53605 11.1833 2.87516 9.99357C4.24054 8.80386 6.1967 8.209 8.74365 8.209C11.2906 8.209 13.2599 8.80386 14.6515 9.99357C15.4918 9.86138 16.2795 9.64987 17.0147 9.35906C17.7499 9.06824 18.4326 8.67167 19.0627 8.16935L19.6141 8.56592V10.7867H15.3605C16.2007 11.8442 16.6208 13.1397 16.6208 14.6731C16.6208 16.5502 15.9381 18.0836 14.5728 19.2733C13.2336 20.463 11.2906 21.0579 8.74365 21.0579ZM8.66488 19.9871C9.76768 19.9871 10.5685 19.5641 11.0674 18.7181C11.5926 17.8457 11.8551 16.4577 11.8551 14.5541C11.8551 12.677 11.6057 11.3287 11.1068 10.5091C10.6079 9.68953 9.83333 9.27974 8.78304 9.27974C7.73275 9.27974 6.94503 9.70275 6.41989 10.5488C5.921 11.3683 5.67156 12.7299 5.67156 14.6334C5.67156 16.537 5.90787 17.9118 6.3805 18.7578C6.85313 19.5773 7.61459 19.9871 8.66488 19.9871ZM3.07209 31.2894C3.07209 32.7435 3.53159 33.8274 4.4506 34.5413C5.3696 35.2815 6.82687 35.6517 8.82242 35.6517C11.028 35.6517 12.656 35.2815 13.7063 34.5413C14.7828 33.8274 15.3211 32.8757 15.3211 31.686C15.3211 30.9457 15.0454 30.3641 14.494 29.941C13.9688 29.518 13.0761 29.1876 11.8157 28.9496L4.76568 27.5616C4.66066 27.5352 4.55563 27.5088 4.4506 27.4823C4.05674 28.0111 3.72852 28.6191 3.46595 29.3065C3.20338 29.9939 3.07209 30.6549 3.07209 31.2894Z" fill="url(#paint0_linear)"/>
<path d="M26.0248 28.3944C24.5281 28.3944 23.2547 27.9714 22.2044 27.1254C21.1803 26.2529 20.6683 25.0104 20.6683 23.3976C20.6683 22.1286 21.2722 20.9653 22.4801 19.9078C23.7142 18.8239 25.6441 18.0307 28.2698 17.5284C28.7162 17.4227 29.2282 17.3301 29.8058 17.2508C30.4097 17.1451 31.0005 17.0393 31.5782 16.9335V14.1179C31.5782 12.3201 31.355 11.0775 30.9086 10.3901C30.4623 9.70275 29.7533 9.35906 28.7818 9.35906H28.6636C28.0597 9.35906 27.574 9.55734 27.2064 9.95391C26.865 10.324 26.6418 10.9453 26.5368 11.8178L26.4187 12.3333C26.3399 13.3909 26.0642 14.1708 25.5915 14.6731C25.1189 15.149 24.5281 15.3869 23.8192 15.3869C23.1628 15.3869 22.6114 15.1886 22.165 14.7921C21.7449 14.3691 21.5348 13.8271 21.5348 13.1661C21.5348 12.0822 21.9024 11.1701 22.6376 10.4298C23.3728 9.68953 24.3443 9.13433 25.5522 8.7642C26.7863 8.39407 28.1122 8.209 29.5301 8.209C31.867 8.209 33.6525 8.77742 34.8866 9.91426C36.1207 11.0511 36.7377 12.9017 36.7377 15.4662V24.3098C36.7377 25.4466 37.276 26.015 38.3526 26.015H39.2584L39.6523 26.4512C39.1797 27.0593 38.6545 27.522 38.0769 27.8392C37.4992 28.1829 36.7115 28.3548 35.7137 28.3548C34.5846 28.3548 33.6788 28.0904 32.9961 27.5616C32.3397 27.0064 31.9064 26.2794 31.6964 25.3805C30.8561 26.2794 30.029 27.0064 29.215 27.5616C28.4011 28.1168 27.3377 28.3944 26.0248 28.3944ZM28.3092 25.8564C28.8343 25.8564 29.3332 25.7374 29.8058 25.4995C30.2785 25.2615 30.8692 24.865 31.5782 24.3098V17.9646C30.8955 18.0704 30.1997 18.2026 29.4907 18.3612C28.3617 18.6256 27.4427 19.1147 26.7337 19.8285C26.051 20.5423 25.7097 21.5073 25.7097 22.7235C25.7097 23.781 25.946 24.5741 26.4187 25.1029C26.9175 25.6052 27.5477 25.8564 28.3092 25.8564Z" fill="url(#paint1_linear)"/>
<path d="M40.624 27.8392V27.0857L41.2148 26.9271C42.0813 26.6363 42.5145 25.9753 42.5145 24.9443C42.5145 24.0454 42.5145 23.1465 42.5145 22.2476C42.5408 21.3223 42.5539 20.4101 42.5539 19.5113V4.44159C42.5539 3.88639 42.462 3.4766 42.2782 3.21222C42.0944 2.9214 41.7399 2.7099 41.2148 2.57771L40.624 2.41908V1.66559L47.5165 0L48.0285 0.356913L47.871 5.94855V24.9443C47.8973 25.473 48.0023 25.9093 48.1861 26.2529C48.3961 26.5702 48.7506 26.7949 49.2495 26.9271L49.8009 27.0857V27.8392H40.624Z" fill="url(#paint2_linear)"/>
<path d="M51.6628 27.8392V27.0857L52.2536 26.9271C53.1201 26.6363 53.5533 25.9753 53.5533 24.9443C53.5533 24.0454 53.5533 23.1465 53.5533 22.2476C53.5796 21.3223 53.5927 20.4101 53.5927 19.5113V4.44159C53.5927 3.88639 53.5008 3.4766 53.317 3.21222C53.1332 2.9214 52.7787 2.7099 52.2536 2.57771L51.6628 2.41908V1.66559L58.5553 0L59.0673 0.356913L58.9098 5.94855V24.9443C58.936 25.473 59.0411 25.9093 59.2249 26.2529C59.4349 26.5702 59.7894 26.7949 60.2883 26.9271L60.8397 27.0857V27.8392H51.6628Z" fill="url(#paint3_linear)"/>
<path d="M72.4693 8.209C74.1235 8.209 75.5414 8.5527 76.723 9.24009C77.9045 9.92747 78.8104 10.8792 79.4406 12.0954C80.097 13.2851 80.4252 14.6599 80.4252 16.2197C80.4252 16.5634 80.4121 16.8939 80.3858 17.2111C80.3596 17.502 80.3071 17.7796 80.2283 18.0439H68.3732C68.3994 20.7671 68.8983 22.7235 69.8698 23.9132C70.8676 25.1029 72.3117 25.6978 74.2023 25.6978C75.5151 25.6978 76.5785 25.4862 77.3925 25.0632C78.2065 24.6138 78.9548 23.9925 79.6375 23.1994L80.2677 23.7942C79.48 25.2483 78.4034 26.3851 77.038 27.2047C75.6989 27.9979 74.0972 28.3944 72.233 28.3944C70.3687 28.3944 68.7276 27.9979 67.3097 27.2047C65.8918 26.4116 64.7759 25.2747 63.9619 23.7942C63.1742 22.2872 62.7804 20.4895 62.7804 18.4009C62.7804 16.2329 63.2399 14.3955 64.1589 12.8885C65.1041 11.3816 66.312 10.2315 67.7824 9.43837C69.279 8.61879 70.8413 8.209 72.4693 8.209ZM72.2724 9.35906C71.5109 9.35906 70.8413 9.58378 70.2637 10.0332C69.7123 10.4562 69.2659 11.2229 68.9246 12.3333C68.6095 13.4173 68.4257 14.9507 68.3732 16.9335H75.4232C75.712 14.2633 75.607 12.3333 75.1081 11.1436C74.6092 9.95391 73.664 9.35906 72.2724 9.35906Z" fill="url(#paint4_linear)"/>
<path d="M82.4311 27.8392V27.0857L83.0219 26.8875C83.5471 26.7553 83.9015 26.5305 84.0853 26.2133C84.2954 25.896 84.4004 25.473 84.4004 24.9443V13.3248C84.3742 12.7431 84.2691 12.3069 84.0853 12.0161C83.9015 11.6988 83.5471 11.4873 83.0219 11.3816L82.4311 11.2229V10.5091L88.851 8.209L89.3236 8.64523L89.6781 12.135V12.4126C90.072 11.6724 90.5709 10.985 91.1748 10.3505C91.7787 9.71597 92.4351 9.20043 93.1441 8.80386C93.853 8.40729 94.562 8.209 95.2709 8.209C96.2687 8.209 97.017 8.47338 97.5159 9.00214C98.0148 9.5309 98.2642 10.2051 98.2642 11.0247C98.2642 11.9235 98.0148 12.6109 97.5159 13.0868C97.017 13.5363 96.4131 13.761 95.7041 13.761C94.6539 13.761 93.748 13.2851 92.9865 12.3333L92.9078 12.254C92.6452 11.9368 92.3432 11.7649 92.0019 11.7385C91.6868 11.6856 91.3717 11.8442 91.0566 12.2144C90.794 12.4787 90.5446 12.796 90.3083 13.1661C90.0982 13.5098 89.9013 13.9196 89.7175 14.3955V24.7856C89.7175 25.288 89.8225 25.711 90.0326 26.0547C90.2427 26.3719 90.5971 26.5966 91.096 26.7288L92.2776 27.0857V27.8392H82.4311Z" fill="url(#paint5_linear)"/>
<path d="M104.116 6.02787C103.249 6.02787 102.514 5.75027 101.91 5.19507C101.306 4.63987 101.004 3.93926 101.004 3.09325C101.004 2.22079 101.306 1.52019 101.91 0.991425C102.514 0.436227 103.249 0.158628 104.116 0.158628C104.982 0.158628 105.717 0.436227 106.321 0.991425C106.925 1.52019 107.227 2.22079 107.227 3.09325C107.227 3.93926 106.925 4.63987 106.321 5.19507C105.717 5.75027 104.982 6.02787 104.116 6.02787ZM99.5864 27.8392V27.0857L100.177 26.9271C100.702 26.7685 101.057 26.5305 101.241 26.2133C101.424 25.896 101.529 25.473 101.556 24.9443V17.6474C101.556 16.8278 101.556 16.0743 101.556 15.3869C101.556 14.6731 101.543 13.9461 101.516 13.2058C101.516 12.677 101.411 12.2672 101.201 11.9764C101.017 11.6592 100.663 11.4477 100.138 11.3419L99.5864 11.2229V10.5091L106.479 8.209L106.952 8.64523L106.833 14.2765V24.9839C106.833 25.5127 106.925 25.9357 107.109 26.2529C107.319 26.5702 107.674 26.8081 108.173 26.9668L108.606 27.0857V27.8392H99.5864Z" fill="url(#paint6_linear)"/>
<path d="M116.066 28.3944C114.569 28.3944 113.296 27.9714 112.246 27.1254C111.222 26.2529 110.71 25.0104 110.71 23.3976C110.71 22.1286 111.313 20.9653 112.521 19.9078C113.755 18.8239 115.685 18.0307 118.311 17.5284C118.757 17.4227 119.269 17.3301 119.847 17.2508C120.451 17.1451 121.042 17.0393 121.619 16.9335V14.1179C121.619 12.3201 121.396 11.0775 120.95 10.3901C120.503 9.70275 119.795 9.35906 118.823 9.35906H118.705C118.101 9.35906 117.615 9.55734 117.248 9.95391C116.906 10.324 116.683 10.9453 116.578 11.8178L116.46 12.3333C116.381 13.3909 116.105 14.1708 115.633 14.6731C115.16 15.149 114.569 15.3869 113.86 15.3869C113.204 15.3869 112.653 15.1886 112.206 14.7921C111.786 14.3691 111.576 13.8271 111.576 13.1661C111.576 12.0822 111.944 11.1701 112.679 10.4298C113.414 9.68953 114.386 9.13433 115.593 8.7642C116.827 8.39407 118.153 8.209 119.571 8.209C121.908 8.209 123.694 8.77742 124.928 9.91426C126.162 11.0511 126.779 12.9017 126.779 15.4662V24.3098C126.779 25.4466 127.317 26.015 128.394 26.015H129.3L129.693 26.4512C129.221 27.0593 128.696 27.522 128.118 27.8392C127.54 28.1829 126.753 28.3548 125.755 28.3548C124.626 28.3548 123.72 28.0904 123.037 27.5616C122.381 27.0064 121.948 26.2794 121.738 25.3805C120.897 26.2794 120.07 27.0064 119.256 27.5616C118.442 28.1168 117.379 28.3944 116.066 28.3944ZM118.35 25.8564C118.876 25.8564 119.374 25.7374 119.847 25.4995C120.32 25.2615 120.91 24.865 121.619 24.3098V17.9646C120.937 18.0704 120.241 18.2026 119.532 18.3612C118.403 18.6256 117.484 19.1147 116.775 19.8285C116.092 20.5423 115.751 21.5073 115.751 22.7235C115.751 23.781 115.987 24.5741 116.46 25.1029C116.959 25.6052 117.589 25.8564 118.35 25.8564Z" fill="url(#paint7_linear)"/>
<path d="M135.667 28.3944C134.748 28.3944 133.96 28.0772 133.304 27.4427C132.674 26.8081 132.359 26.0414 132.359 25.1426C132.359 24.2172 132.674 23.4241 133.304 22.7631C133.96 22.1022 134.748 21.7717 135.667 21.7717C136.586 21.7717 137.361 22.1022 137.991 22.7631C138.647 23.4241 138.976 24.2172 138.976 25.1426C138.976 26.0414 138.647 26.8081 137.991 27.4427C137.361 28.0772 136.586 28.3944 135.667 28.3944Z" fill="url(#paint8_linear)"/>
<defs>
<linearGradient id="paint0_linear" x1="69.4878" y1="0" x2="69.4878" y2="37" gradientUnits="userSpaceOnUse">
<stop stop-color="#D4AF37"/>
<stop offset="0.557292" stop-color="#FEC300" stop-opacity="0.5"/>
</linearGradient>
<linearGradient id="paint1_linear" x1="69.4878" y1="0" x2="69.4878" y2="37" gradientUnits="userSpaceOnUse">
<stop stop-color="#D4AF37"/>
<stop offset="0.557292" stop-color="#FEC300" stop-opacity="0.5"/>
</linearGradient>
<linearGradient id="paint2_linear" x1="69.4878" y1="0" x2="69.4878" y2="37" gradientUnits="userSpaceOnUse">
<stop stop-color="#D4AF37"/>
<stop offset="0.557292" stop-color="#FEC300" stop-opacity="0.5"/>
</linearGradient>
<linearGradient id="paint3_linear" x1="69.4878" y1="0" x2="69.4878" y2="37" gradientUnits="userSpaceOnUse">
<stop stop-color="#D4AF37"/>
<stop offset="0.557292" stop-color="#FEC300" stop-opacity="0.5"/>
</linearGradient>
<linearGradient id="paint4_linear" x1="69.4878" y1="0" x2="69.4878" y2="37" gradientUnits="userSpaceOnUse">
<stop stop-color="#D4AF37"/>
<stop offset="0.557292" stop-color="#FEC300" stop-opacity="0.5"/>
</linearGradient>
<linearGradient id="paint5_linear" x1="69.4878" y1="0" x2="69.4878" y2="37" gradientUnits="userSpaceOnUse">
<stop stop-color="#D4AF37"/>
<stop offset="0.557292" stop-color="#FEC300" stop-opacity="0.5"/>
</linearGradient>
<linearGradient id="paint6_linear" x1="69.4878" y1="0" x2="69.4878" y2="37" gradientUnits="userSpaceOnUse">
<stop stop-color="#D4AF37"/>
<stop offset="0.557292" stop-color="#FEC300" stop-opacity="0.5"/>
</linearGradient>
<linearGradient id="paint7_linear" x1="69.4878" y1="0" x2="69.4878" y2="37" gradientUnits="userSpaceOnUse">
<stop stop-color="#D4AF37"/>
<stop offset="0.557292" stop-color="#FEC300" stop-opacity="0.5"/>
</linearGradient>
<linearGradient id="paint8_linear" x1="69.4878" y1="0" x2="69.4878" y2="37" gradientUnits="userSpaceOnUse">
<stop stop-color="#D4AF37"/>
<stop offset="0.557292" stop-color="#FEC300" stop-opacity="0.5"/>
</linearGradient>
</defs>
</svg>
